<?xml version="1.0" encoding="utf-8"?>
<!-- Generator: Adobe Illustrator 24.1.2, SVG Export Plug-In . SVG Version: 6.00 Build 0)  -->
<svg version="1.1" id="Layer_1" xmlns="http://www.w3.org/2000/svg" xmlns:xlink="http://www.w3.org/1999/xlink" x="0px" y="0px"
	 viewBox="0 0 35.2 38.8" style="enable-background:new 0 0 35.2 38.8;" xml:space="preserve">
<style type="text/css">
	.st0{fill:#F69622;}
</style>
<g>
	<path class="st0" d="M24.3,2.2c0,2.3,0,2.3-2.1,2.5c-5,0.2-9.3,3.4-11.1,8.6c-1.4,4.3-1.4,8.6,0.2,12.9c2,5.2,5.9,7.9,11.4,8.2
		c1.3,0,1.8,0.4,1.8,1.6c0,3-0.2,3-3.2,2.7c-9.8-1.1-16.1-8-16.5-18.2c-0.2-4.3,0.7-8.4,3-12.2c3.6-5.7,8.9-8,15.6-8.2
		C24.6-0.2,24.1,1.4,24.3,2.2z"/>
	<path class="st0" d="M26.4,25.9c-0.9-0.7-1.6-1.1-2-1.6c-0.7-1.1-0.2-2.5,0.9-3c1.3-0.5,2.7-0.2,3,1.3c0.2,1.1,0.4,2.3,0,3.2
		c-0.7,1.8-1.8,3.2-2.7,4.8c-1.4-0.7-1.4-1.3-0.7-2.1C25.5,27.5,26,26.6,26.4,25.9z"/>
	<path class="st0" d="M28.7,12.8c0,1.3-1.3,2.3-2.5,2.3c-1.3,0-2.3-1.3-2.1-2.3c0-1.3,1.1-2.3,2.3-2.3
		C27.7,10.3,28.7,11.4,28.7,12.8z"/>
</g>
</svg>
